<?xml version="1.0" encoding="utf-8"?>
<!-- Generator: Adobe Illustrator 24.0.3, SVG Export Plug-In . SVG Version: 6.00 Build 0)  -->
<svg version="1.1" id="レイヤー_1" xmlns="http://www.w3.org/2000/svg" xmlns:xlink="http://www.w3.org/1999/xlink" x="0px"
	 y="0px" viewBox="0 0 640 480" style="enable-background:new 0 0 640 480;" xml:space="preserve">
<style type="text/css">
	.st0{fill:#CCCCCC;}
	.st1{fill:#FFFFFF;}
	.st2{opacity:0.48;}
	.st3{fill:#414042;}
	.st4{fill:#D9D9D9;}
	.st5{fill:#343434;}
	.st6{fill:#B6B6B6;}
	.st7{fill:#888888;}
	.st8{fill:#222222;}
</style>
<g>
	<g>
		<path class="st0" d="M114.2,68.1c0-0.9,0.4-1.3,1.2-1.3h9.3c0.4,0,0.7,0.2,1,0.6l22.5,40.6h0.2V68c0-0.9,0.4-1.3,1.2-1.3h8.8
			c0.8,0,1.2,0.4,1.2,1.3v58.1c0,0.8-0.4,1.2-1.2,1.2H149c-0.4,0-0.7-0.2-1-0.6L125.5,86h-0.2v40.1c0,0.8-0.4,1.2-1.2,1.2h-8.8
			c-0.8,0-1.2-0.4-1.2-1.2L114.2,68.1L114.2,68.1z"/>
		<path class="st0" d="M224.3,97.1c0,4.4-0.6,8.5-1.7,12.3c-1.1,3.8-2.8,7.1-5.1,9.9s-5.1,5-8.6,6.6s-7.6,2.4-12.3,2.4
			c-4.8,0-8.9-0.8-12.3-2.4c-3.5-1.6-6.3-3.8-8.6-6.6s-4-6.1-5.1-9.9s-1.7-7.9-1.7-12.3s0.6-8.5,1.7-12.3c1.1-3.8,2.8-7.1,5.1-9.9
			s5.1-4.9,8.6-6.6c3.5-1.6,7.6-2.4,12.3-2.4s8.8,0.8,12.3,2.4s6.4,3.8,8.6,6.6s4,6,5.1,9.9S224.3,92.7,224.3,97.1z M196.6,75.6
			c-3.2,0-5.9,0.6-7.9,1.8c-2,1.2-3.6,2.8-4.8,4.9c-1.2,2-2,4.3-2.4,6.9c-0.5,2.6-0.7,5.2-0.7,7.9c0,2.7,0.2,5.4,0.7,8
			s1.3,4.9,2.4,6.9c1.2,2,2.8,3.6,4.8,4.8c2,1.2,4.7,1.8,7.9,1.8s5.8-0.6,7.9-1.8c2.1-1.2,3.7-2.8,4.9-4.8s2-4.3,2.4-6.9
			s0.6-5.3,0.6-8s-0.2-5.4-0.6-7.9c-0.4-2.6-1.2-4.9-2.4-6.9s-2.8-3.6-4.9-4.9C202.4,76.2,199.8,75.6,196.6,75.6z"/>
		<path class="st0" d="M276.8,68.1c0-0.9,0.4-1.3,1.3-1.3h10.2c0.8,0,1.2,0.4,1.2,1.3v58.1c0,0.8-0.4,1.2-1.2,1.2h-10.2
			c-0.9,0-1.3-0.4-1.3-1.2V68.1z"/>
		<path class="st0" d="M349.3,86.5l-11.6,25.1c-0.3,0.5-0.7,0.7-1.1,0.7h-8.4c-0.4,0-0.8-0.2-1.1-0.7l-11.6-25.1h-0.2v39.7
			c0,0.8-0.4,1.2-1.2,1.2h-8.5c-0.8,0-1.2-0.4-1.2-1.2V68.1c0-0.9,0.4-1.3,1.2-1.3h9.5c0.4,0,0.8,0.2,1.1,0.7l16.2,35h0.2l16.2-35
			c0.3-0.5,0.6-0.7,1.1-0.7h9.8c0.8,0,1.2,0.4,1.2,1.3v58.1c0,0.8-0.4,1.2-1.2,1.2h-8.8c-0.8,0-1.2-0.4-1.2-1.2V86.5H349.3z"/>
		<path class="st0" d="M389.2,67.7c0.2-0.6,0.5-0.9,1.1-0.9h10.8c0.5,0,0.9,0.3,1.1,0.9l19.4,57.8c0.2,0.5,0.1,1-0.1,1.4
			s-0.7,0.6-1.3,0.6h-9.5c-0.6,0-1.1-0.3-1.2-0.8l-3.8-13.8h-20.2l-3.9,13.8c-0.2,0.5-0.5,0.8-1.1,0.8h-9.2c-0.5,0-0.9-0.2-1.2-0.6
			c-0.2-0.4-0.3-0.8-0.1-1.4L389.2,67.7z M403.1,103.9L395.6,77h-0.2l-7.5,26.9H403.1z"/>
		<path class="st0" d="M457.9,66c5.2,0,10.1,0.5,14.6,1.6c0.6,0.2,0.9,0.5,0.9,1.1v7c0,0.5-0.2,0.9-0.5,1.1
			c-0.4,0.2-0.8,0.3-1.3,0.2c-2.3-0.6-4.4-1-6.5-1.3s-4.1-0.4-6-0.4c-6.8,0-11.8,1.8-15.2,5.4c-3.5,3.8-5.3,9.3-5.3,16.5
			c0,7,1.7,12.4,5.2,16.2c3.4,3.8,7.9,5.8,13.8,5.8c2.5,0,5.1-0.4,7.7-1.3V100h-14.2c-0.9,0-1.3-0.4-1.3-1.2v-6.4
			c0-0.9,0.4-1.3,1.3-1.3h24.1c0.8,0,1.2,0.4,1.2,1.3V124c0,0.5-0.2,0.8-0.7,1c-5.7,2.2-12,3.3-19,3.3c-8.9,0-16.1-2.8-21.6-8.4
			s-8.3-13.2-8.3-22.8c0-9.7,2.7-17.3,8.2-22.9C440.6,68.7,448.2,66,457.9,66z"/>
		<path class="st0" d="M500.7,91h23.1c0.8,0,1.2,0.4,1.2,1.3v6.4c0,0.8-0.4,1.2-1.2,1.2h-23.1V118h24.7c0.9,0,1.3,0.4,1.3,1.3v6.9
			c0,0.8-0.4,1.2-1.3,1.2h-35.1c-0.8,0-1.2-0.4-1.2-1.2V68.1c0-0.9,0.4-1.3,1.2-1.3h35.1c0.9,0,1.3,0.4,1.3,1.3V75
			c0,0.8-0.4,1.2-1.3,1.2h-24.7L500.7,91L500.7,91z"/>
	</g>
	<g>
		<path class="st1" d="M511.4,352.1c-6-20.7-26.6-64-42.3-94.7c-17.3-33.8-29.9-52-39.6-57.3c-4.2-2.3-14.6-0.2-20.6,1.3
			c-30.2-24.3-64.7-28.5-91.5-28.8c0.4-7.2,1.9-16.4,8.8-22.9c0.8-0.8,0.9-2.1,0.1-2.9c-0.8-0.8-2.1-0.9-2.9-0.1
			c-8,7.6-9.7,18-10,25.8c-3.9,0-8,0.1-12,0.4c-1.3-4.6-1-9.7,0.9-13.6c0.5-1,0.1-2.3-0.9-2.8s-2.3-0.1-2.8,0.9
			c-2.3,4.6-2.8,10.4-1.4,15.8c-21.5,2-44.4,8.7-67.1,27.7c-6.1-1.5-15.5-3.2-19.4-1c-9.7,5.3-22.3,23.4-39.6,57.3
			c-15.8,30.7-36.3,74-42.3,94.7c-2.3,7.8-7,44.4,4.6,62c3.7,5.6,8.6,8.8,14.8,9.6c1.2,0.2,2.4,0.2,3.6,0.2
			c16.9,0,32.8-15.6,47.2-46.3l0.6-1.3c0.1-0.2,0.3-0.6,0.4-1c10.4,5.5,23.1,8.7,39.2,10.1c2.3,0.2,4.7,0.3,6.9,0.3
			c9.5,0,18.4-1.7,26.5-4.4c1.8,1.5,3.8,2.9,6.1,4.2c2.2,1.2,4.5,2.4,7,3.4c6.2,11.9,15.7,20.7,30.1,21.5c0.5,0,1.1,0,1.6,0
			c11.2,0,20.9-6.8,28.9-19.8c1.8-0.7,3.6-1.4,5.3-2.2c5.7-2.7,9.9-6,12.7-9.6c8.8,2.4,18.3,4.1,28.5,5.5c15.6,2.1,33-2.2,47.4-10.4
			c0.3,1.1,0.6,2,0.8,2.4l0.6,1.3c14.5,30.8,30.3,46.3,47.2,46.3c1.2,0,2.4-0.1,3.6-0.2c6.1-0.8,11.1-4,14.8-9.6
			C518.4,396.5,513.7,359.9,511.4,352.1z"/>
		<g class="st2">
			<g>
				<path class="st3" d="M405.6,204.4c0,0,17.9-5.2,22.9-2.5c10.9,5.9,25.1,29.9,38.7,56.4s35.8,72.3,42.2,94.4
					c2.8,9.5,9.5,65.6-17.6,69s-45-37.4-49.3-46.3C438.3,366.5,405.6,204.4,405.6,204.4z"/>
				<path d="M488.5,424c-16.9,0-32.7-15.6-47.2-46.3l-0.6-1.3c-4.3-9-35.8-164.9-37.1-171.5l-0.4-1.9l1.8-0.5
					c3.1-0.9,19-5.3,24.5-2.4c9.7,5.3,22.2,23.4,39.6,57.3c15.8,30.7,36.3,74,42.3,94.7c2.3,7.8,7,44.4-4.6,62
					c-3.7,5.6-8.6,8.8-14.8,9.6C490.9,423.9,489.7,424,488.5,424z M408,205.9c9.4,46.3,33,161.6,36.4,168.6l0.6,1.3
					c14.6,31.1,30.3,45.8,46.5,43.8c4.9-0.6,8.8-3.2,11.8-7.8c10.8-16.5,6-52.2,4.1-58.6c-5.9-20.5-26.4-63.4-42.1-94
					c-16.7-32.6-29.1-50.7-37.9-55.5C424.8,202.3,415.1,204,408,205.9z"/>
			</g>
			<g>
				<path class="st3" d="M234.4,204.4c0,0-17.9-5.2-22.9-2.5c-10.9,5.9-25.1,29.9-38.7,56.4c-13.6,26.5-35.8,72.3-42.2,94.4
					c-2.8,9.5-9.5,65.6,17.6,69s45-37.4,49.3-46.3C201.7,366.5,234.4,204.4,234.4,204.4z"/>
				<path d="M151.5,424c-1.2,0-2.4-0.1-3.6-0.2c-6.1-0.8-11.1-4-14.8-9.6c-11.6-17.7-6.9-54.3-4.6-62.1c6-20.7,26.6-64,42.3-94.7
					c17.3-33.8,29.9-52,39.6-57.3c5.5-3,21.4,1.4,24.5,2.4l1.8,0.5l-0.4,1.9c-1.3,6.6-32.8,162.4-37.1,171.5l-0.6,1.3
					C184.2,408.4,168.4,424,151.5,424z M215.8,203.2c-1.5,0-2.7,0.2-3.4,0.5c-8.8,4.8-21.2,22.9-37.9,55.5
					c-15.7,30.6-36.1,73.6-42.1,94c-1.9,6.4-6.7,42.1,4.1,58.6c3,4.6,6.9,7.1,11.8,7.8c16.2,2.1,31.9-12.6,46.5-43.8l0.6-1.4
					c3.4-7,27-122.3,36.4-168.6C226.8,204.5,220.1,203.2,215.8,203.2z"/>
			</g>
			<g>
				
					<ellipse transform="matrix(4.036130e-02 -0.9992 0.9992 4.036130e-02 -64.1219 667.7917)" class="st4" cx="315.6" cy="367.3" rx="26.6" ry="50.8"/>
				<path class="st5" d="M318.6,394.9c-1.3,0-2.7,0-4-0.1c-13.7-0.6-26.5-3.9-36.1-9.4c-9.7-5.6-14.9-12.8-14.6-20.3
					s6.1-14.3,16.2-19.1c9.9-4.7,23-7,36.7-6.4s26.5,3.9,36.1,9.4c9.7,5.6,14.9,12.8,14.6,20.3s-6.1,14.3-16.2,19.1
					C342.3,392.6,330.8,394.9,318.6,394.9z M312.7,341.7c-11.9,0-23.1,2.2-31.8,6.3c-9.4,4.5-14.8,10.6-15,17.3
					c-0.3,6.7,4.6,13.2,13.6,18.4c9.3,5.3,21.7,8.5,35.1,9.1s26.1-1.7,35.7-6.2c9.4-4.5,14.8-10.6,15-17.3h1h-1
					c0.3-6.7-4.6-13.2-13.6-18.4c-9.3-5.3-21.7-8.5-35.1-9.1C315.3,341.7,314,341.7,312.7,341.7z"/>
			</g>
			<g>
				<g>
					<path class="st6" d="M276,319.6c-0.8,15.8-1,86.3,39.6,88.6s48-89.1,47.3-88.4c-0.2,0.2-21.9,0.1-43.5,0
						C297.7,319.8,276,319.6,276,319.6z"/>
					<path class="st7" d="M317.1,410.4c-0.5,0-1.1,0-1.6,0c-44.5-2.5-42-81.8-41.6-90.8l0.1-2h2c0,0,21.7,0.2,43.4,0.3
						c31.3,0.2,40.3,0.1,42.6,0l0.6-0.6l1.4,0.8c1.1,0.6,1.8,1.1-0.5,16.4c-1.1,7.7-3.3,19.4-6.9,31.3
						C347.6,395,334,410.4,317.1,410.4z M278,321.7c-0.5,14.7-0.6,82.3,37.8,84.5c7.1,0.4,13.5-2.3,19.3-8.1
						c19.3-19.2,25.2-65.8,25.8-76.1c-4.5,0.2-15.1,0.1-41.4,0C301.6,321.9,283.8,321.8,278,321.7z"/>
				</g>
				<path class="st7" d="M317.2,397.9L317.2,397.9c-1.2,0-2.1-0.9-2.1-2.1l0.2-57.9c0-1.1,0.9-2.1,2.1-2.1l0,0
					c1.1,0,2.1,0.9,2.1,2.1l-0.2,57.9C319.3,397,318.3,397.9,317.2,397.9z"/>
			</g>
			<g>
				<path class="st4" d="M314.8,174.7c34.8,0,88.8,5.8,124.4,65.3s35.5,82.6,26.2,104.9s-43,41.3-72.7,37.4
					c-29.7-4-55-10.8-74.4-33.8c0,0-32.8,39-79.1,34.9c-31-2.8-51.1-12-64.5-36.4c-13.9-25.2-14.4-51.8,27.4-111.6
					C238.1,183.8,277.7,174.7,314.8,174.7z"/>
				<path class="st5" d="M245.9,385.7c-2.3,0-4.6-0.1-6.9-0.3c-34-3-53.1-13.9-66.1-37.5c-8.2-14.8-10.4-28.5-7.4-44.2
					c3.6-18.6,14.7-40.6,34.9-69.5c37.9-54.2,79.1-61.5,114.4-61.5c37.2,0,90.7,6.9,126.1,66.3c35.1,58.8,36.3,82.9,26.4,106.7
					c-10.1,24.1-45.7,42.5-74.9,38.6c-30.7-4.1-55.2-11.3-74.2-32.7C311.3,358.8,283.5,385.7,245.9,385.7z M314.8,176.8
					c-34.2,0-74.2,7.1-111,59.7c-41,58.5-41,84.4-27.3,109.4c12.2,22.2,30.4,32.5,62.9,35.4c44.6,4,77-33.8,77.3-34.2l1.6-1.9
					l1.6,1.9c18.4,21.8,42.6,29,73.1,33.1c2.6,0.4,5.3,0.5,8,0.5c27.5,0,54.7-18.1,62.5-36.6c9.4-22.6,8.1-45.7-26.1-103
					C402.9,183.4,350.9,176.8,314.8,176.8z"/>
			</g>
			<g>
				<path class="st3" d="M269.9,303.2c5.5-8.5,28.2-15.3,46.8-16c19.2-0.7,41.7,5.9,48.1,12.7c10.6,11.4-12.2,59.6-43.6,60.6
					C290.4,361.6,261,317.2,269.9,303.2z"/>
				<path d="M320,362.7c-19.6,0-38.3-17.2-47.5-33.4c-6.4-11.3-8-21.4-4.3-27.1l0,0c6.2-9.6,29.9-16.3,48.4-16.9
					c18.9-0.7,42.5,5.7,49.7,13.4c4.5,4.8,4.2,14.8-0.8,26.8c-10.4,25.1-29.8,36.9-44.3,37.4C320.8,362.7,320.4,362.7,320,362.7z
					 M271.7,304.3c-2.8,4.3-1.1,13.1,4.5,22.8c8.7,15.2,26,31.3,43.9,31.3c0.3,0,0.7,0,1,0c18.2-0.6,33.8-18.5,40.6-34.8
					c4.2-10.1,4.8-18.8,1.5-22.3c-5.7-6.1-27.2-12.7-46.5-12.1C297.4,290,276.4,297,271.7,304.3L271.7,304.3z"/>
			</g>
			<path class="st5" d="M279.8,286.2c-0.4,0-0.7-0.2-0.9-0.6c-0.3-0.5-0.1-1.1,0.4-1.4c18.2-9.3,54.3-11.6,77.1,0
				c0.5,0.3,0.7,0.9,0.5,1.4c-0.3,0.5-0.9,0.7-1.4,0.5c-21.6-11-57.5-9.1-75.2,0C280.1,286.2,279.9,286.2,279.8,286.2z"/>
			<g>
				<g>
					<path class="st5" d="M192.2,332.4h-0.1c-3.1-0.4-5.4-2.1-6.5-4.8c-0.9-2.3-0.7-4.8,0.6-6.4c0.4-0.4,1-0.5,1.5-0.1
						c0.4,0.4,0.5,1,0.1,1.5c-0.8,1-1,2.8-0.3,4.4c0.8,2,2.6,3.2,4.8,3.5c0.6,0.1,1,0.6,0.9,1.2C193.1,332,192.7,332.4,192.2,332.4z
						"/>
					<path class="st5" d="M184.3,335.3c-1.9,0-3.7-0.9-4.9-2.5c-1-1.4-1.4-3-0.8-4.3c0.2-0.5,0.8-0.8,1.3-0.6
						c0.5,0.2,0.8,0.8,0.6,1.3c-0.2,0.6,0,1.5,0.6,2.3c0.4,0.5,1.6,1.8,3.7,1.6c0.6,0,1.1,0.4,1.1,0.9c0.1,0.6-0.4,1.1-0.9,1.1
						C184.7,335.3,184.5,335.3,184.3,335.3z"/>
				</g>
				<g>
					<path class="st5" d="M441.7,332.4c-0.5,0-1-0.4-1-0.9c-0.1-0.6,0.3-1.1,0.9-1.2c2.3-0.3,4-1.5,4.8-3.5c0.6-1.6,0.5-3.3-0.3-4.4
						c-0.4-0.4-0.3-1.1,0.1-1.5s1.1-0.3,1.5,0.1c1.3,1.6,1.6,4.1,0.6,6.4c-1.1,2.7-3.5,4.4-6.5,4.8
						C441.7,332.4,441.7,332.4,441.7,332.4z"/>
					<path class="st5" d="M449.5,335.3c-0.2,0-0.4,0-0.6,0c-0.6-0.1-1-0.6-0.9-1.1c0.1-0.6,0.6-1,1.1-0.9c2.1,0.2,3.2-1.1,3.7-1.6
						c0.6-0.8,0.8-1.7,0.6-2.3c-0.2-0.5,0-1.1,0.6-1.3c0.5-0.2,1.1,0,1.3,0.6c0.5,1.3,0.2,2.9-0.8,4.3
						C453.3,334.4,451.4,335.3,449.5,335.3z"/>
				</g>
			</g>
			<g>
				<g>
					<ellipse class="st1" cx="421.1" cy="300.6" rx="19.7" ry="30.5"/>
					<g>
						<ellipse class="st3" cx="414.9" cy="300.6" rx="13.4" ry="26.1"/>
						<path class="st8" d="M414.9,327.7c-8.1,0-14.4-11.9-14.4-27.1s6.3-27.1,14.4-27.1s14.4,11.9,14.4,27.1
							C429.3,315.8,423,327.7,414.9,327.7z M414.9,275.5c-6.7,0-12.4,11.5-12.4,25.1s5.7,25.1,12.4,25.1c6.7,0,12.4-11.5,12.4-25.1
							C427.2,287,421.6,275.5,414.9,275.5z"/>
					</g>
					<g>
						<path class="st3" d="M388.5,255.1l-4.4,8.6c-0.9,1.7,0,4,1.8,4.5c10.3,2.7,41.3,9.9,66.8,5.7c0.4-0.1,0.4-0.8-0.1-0.8
							c-12.8,0.2-45.8-0.9-59.4-18.5C391.8,252.9,389.4,253.2,388.5,255.1z"/>
						<path class="st8" d="M435.4,276.2c-20.4,0-40.7-4.7-49.8-7.1c-1.1-0.3-2-1.1-2.5-2.2c-0.5-1.2-0.5-2.6,0.1-3.7l4.4-8.6
							c0.6-1.2,1.8-2,3.1-2.1c1.3-0.1,2.5,0.4,3.3,1.5c13.2,17.1,45.4,18.4,58.6,18.1l0,0c0.7,0,1.3,0.6,1.4,1.3
							c0.1,0.8-0.4,1.4-1.2,1.5C447.1,275.8,441.3,276.2,435.4,276.2z M389.4,255.5l-4.4,8.6c-0.3,0.6-0.3,1.3,0,1.9
							c0.2,0.5,0.7,0.9,1.2,1.1c7.9,2.1,32.8,8,55.9,6.8c-15.8-0.8-38.8-4.6-49.8-18.8c-0.4-0.5-0.9-0.8-1.5-0.7
							C390.2,254.6,389.7,255,389.4,255.5L389.4,255.5z"/>
					</g>
				</g>
				<g>
					<ellipse class="st1" cx="212.5" cy="300.4" rx="19.7" ry="30.5"/>
					<g>
						<ellipse class="st3" cx="218.8" cy="300.1" rx="13.4" ry="26.1"/>
						<path class="st8" d="M218.8,327.3c-8.1,0-14.4-11.9-14.4-27.1s6.3-27.1,14.4-27.1c8.1,0,14.4,11.9,14.4,27.1
							S226.9,327.3,218.8,327.3z M218.8,275.1c-6.7,0-12.4,11.5-12.4,25.1s5.7,25.1,12.4,25.1s12.4-11.5,12.4-25.1
							C231.1,286.6,225.5,275.1,218.8,275.1z"/>
					</g>
					<g>
						<path class="st3" d="M244.1,254.6l4.4,8.6c0.9,1.7,0,4-1.8,4.5c-10.3,2.7-41.3,9.9-66.8,5.7c-0.4-0.1-0.4-0.8,0.1-0.8
							c12.8,0.2,45.8-0.9,59.4-18.5C240.7,252.4,243.1,252.7,244.1,254.6z"/>
						<path class="st8" d="M197.1,275.8c-5.9,0-11.7-0.4-17.3-1.3c-0.7-0.1-1.2-0.8-1.2-1.5c0.1-0.8,0.7-1.3,1.4-1.3
							c13.2,0.2,45.4-1,58.6-18.1c0.8-1.1,2-1.6,3.3-1.5s2.4,0.9,3.1,2.1l0,0l4.4,8.6c0.6,1.1,0.6,2.5,0.1,3.7
							c-0.5,1.1-1.4,1.9-2.5,2.2C237.8,271.1,217.5,275.8,197.1,275.8z M190.5,273.5c23.1,1.2,48-4.7,55.9-6.8
							c0.5-0.1,0.9-0.5,1.2-1.1s0.3-1.3,0-1.9l-4.4-8.6c-0.3-0.6-0.8-1-1.4-1c-0.6-0.1-1.1,0.2-1.5,0.7
							C229.3,268.9,206.3,272.7,190.5,273.5z"/>
					</g>
				</g>
			</g>
			<path class="st5" d="M301.5,181c-0.7,0-1.4-0.4-1.8-1c-4.1-6.8-4.6-15.9-1.3-22.4c0.5-1,1.8-1.4,2.8-0.9s1.4,1.8,0.9,2.8
				c-2.7,5.3-2.2,12.8,1.1,18.4c0.6,1,0.3,2.3-0.7,2.8C302.2,180.9,301.9,181,301.5,181z"/>
			<path class="st5" d="M315.2,180.7c-1.1,0-2.1-0.9-2.1-2.1c0-7.7-0.1-22.1,10.1-31.8c0.8-0.8,2.1-0.8,2.9,0.1
				c0.8,0.8,0.8,2.1-0.1,2.9c-8.9,8.5-8.9,21.7-8.9,28.8C317.3,179.7,316.4,180.7,315.2,180.7C315.3,180.7,315.3,180.7,315.2,180.7z
				"/>
			<g>
				<circle class="st3" cx="235" cy="356.9" r="2.9"/>
				<circle class="st3" cx="248.5" cy="370.9" r="2.9"/>
				<circle class="st3" cx="225.4" cy="371.7" r="2.9"/>
			</g>
			<g>
				<circle class="st3" cx="396.9" cy="357.8" r="2.9"/>
				<circle class="st3" cx="408" cy="373.8" r="2.9"/>
				<circle class="st3" cx="385.1" cy="370.9" r="2.9"/>
			</g>
		</g>
	</g>
</g>
</svg>
